<?xml version="1.0" encoding="utf-8" ?>
<svg baseProfile="tiny" height="100%" version="1.2" width="100%" xmlns="http://www.w3.org/2000/svg" xmlns:ev="http://www.w3.org/2001/xml-events" xmlns:xlink="http://www.w3.org/1999/xlink"><defs /><path d="M 109.143,125.58 C 113.99000000000001,125.19666666666667 118.83655555555558,124.53311111111111 123.6800740740741,123.88914814814815" fill="none" stroke="rgb(0%,0%,0%)" /><path d="M 109.143,125.58 C 118.83699999999999,124.81333333333333 128.52922222222222,122.92577777777777 138.19892592592595,122.31585185185185" fill="none" stroke="rgb(0%,0%,0%)" /><path d="M 138.19892592592595,122.31585185185185 C 143.0337777777778,122.01088888888889 147.863,122.02533333333332 152.684,122.65899999999999" fill="none" stroke="rgb(0%,0%,0%)" /><path d="M 152.684,122.65899999999999 C 156.984,123.22466666666666 161.20166666666668,124.29 165.26455555555557,125.78974074074075" fill="none" stroke="rgb(0%,0%,0%)" /><path d="M 152.684,122.65899999999999 C 161.284,123.79033333333334 169.55466666666666,126.92033333333333 176.91644444444444,131.52692592592592" fill="none" stroke="rgb(0%,0%,0%)" /><path d="M 176.91644444444444,131.52692592592592 C 180.59733333333332,133.8302222222222 184.051,136.50266666666664 187.20499999999998,139.47899999999998" fill="none" stroke="rgb(0%,0%,0%)" /><path d="M 187.20499999999998,139.47899999999998 C 190.35899999999998,142.45533333333333 193.2188888888889,145.72577777777778 195.7754814814815,149.22303703703705" fill="none" stroke="rgb(0%,0%,0%)" /><path d="M 187.20499999999998,139.47899999999998 C 193.51299999999998,145.43166666666664 198.6445555555555,152.56077777777776 202.52618518518517,160.32796296296294" fill="none" stroke="rgb(0%,0%,0%)" /><path d="M 202.52618518518517,160.32796296296294 C 204.46699999999998,164.21155555555555 206.09533333333331,168.25466666666665 207.402,172.39" fill="none" stroke="rgb(0%,0%,0%)" /><path d="M 207.402,172.39 C 208.153,174.76866666666666 208.80122222222224,177.196 209.2923703703704,179.64955555555557" fill="none" stroke="rgb(0%,0%,0%)" /><path d="M 207.402,172.39 C 208.904,177.14733333333334 209.99488888888888,182.09933333333333 210.2402962962963,187.06644444444447" fill="none" stroke="rgb(0%,0%,0%)" /><path d="M 210.2402962962963,187.06644444444447 C 210.363,189.55 210.27433333333335,192.03733333333332 209.92,194.50599999999997" fill="none" stroke="rgb(0%,0%,0%)" /><path d="M 209.92,194.50599999999997 C 209.59166666666667,196.78766666666667 209.04000000000002,199.024 208.30822222222227,201.20474074074076" fill="none" stroke="rgb(0%,0%,0%)" /><path d="M 209.92,194.50599999999997 C 209.26333333333332,199.0693333333333 207.7133333333333,203.4513333333333 205.61577777777777,207.56992592592593" fill="none" stroke="rgb(0%,0%,0%)" /><path d="M 205.61577777777777,207.56992592592593 C 204.56699999999998,209.6292222222222 203.38133333333332,211.62266666666665 202.10199999999998,213.53999999999996" fill="none" stroke="rgb(0%,0%,0%)" /><path d="M 202.10199999999998,213.53999999999996 C 198.939,218.28299999999996 195.21222222222224,222.58899999999997 191.06781481481485,226.4744074074074" fill="none" stroke="rgb(0%,0%,0%)" /><path d="M 202.10199999999998,213.53999999999996 C 195.77599999999998,223.02599999999995 187.1948888888889,230.76399999999995 177.52785185185186,236.88525925925921" fill="none" stroke="rgb(0%,0%,0%)" /><path d="M 177.52785185185186,236.88525925925921 C 172.69433333333333,239.94588888888887 167.58933333333331,242.60233333333332 162.35899999999998,244.87099999999995" fill="none" stroke="rgb(0%,0%,0%)" /><path d="M 162.35899999999998,244.87099999999995 C 159.51433333333333,246.1053333333333 156.61377777777778,247.2373333333333 153.66677777777778,248.2188148148148" fill="none" stroke="rgb(0%,0%,0%)" /><path d="M 162.35899999999998,244.87099999999995 C 156.66966666666664,247.33966666666663 150.75677777777776,249.39899999999994 144.69588888888887,250.66351851851846" fill="none" stroke="rgb(0%,0%,0%)" /><path d="M 144.69588888888887,250.66351851851846 C 141.66544444444443,251.29577777777772 138.59799999999998,251.72933333333327 135.503,251.91599999999994" fill="none" stroke="rgb(0%,0%,0%)" /><path d="M 135.503,251.91599999999994 C 133.00133333333332,252.0663333333333 130.49,252.0532222222222 127.9897777777778,251.87940740740737" fill="none" stroke="rgb(0%,0%,0%)" /><path d="M 135.503,251.91599999999994 C 130.49966666666666,252.21666666666658 125.45766666666667,251.86355555555548 120.54322222222223,250.87859259259255" fill="none" stroke="rgb(0%,0%,0%)" /><path d="M 120.54322222222223,250.87859259259255 C 118.08599999999998,250.38611111111106 115.66066666666666,249.73566666666662 113.28799999999998,248.92999999999995" fill="none" stroke="rgb(0%,0%,0%)" /><path d="M 113.28799999999998,248.92999999999995 C 109.88933333333333,247.7753333333333 106.61211111111112,246.3091111111111 103.46896296296296,244.5872962962963" fill="none" stroke="rgb(0%,0%,0%)" /><path d="M 113.28799999999998,248.92999999999995 C 106.49066666666664,246.6206666666666 100.1791111111111,243.06511111111104 94.45437037037036,238.711037037037" fill="none" stroke="rgb(0%,0%,0%)" /><path d="M 94.45437037037036,238.711037037037 C 91.59199999999998,236.53399999999993 88.87633333333332,234.15733333333327 86.31999999999998,231.63699999999994" fill="none" stroke="rgb(0%,0%,0%)" /><path d="M 86.31999999999998,231.63699999999994 C 83.97033333333331,229.31899999999996 81.73833333333332,226.8631111111111 79.6804074074074,224.27444444444444" fill="none" stroke="rgb(0%,0%,0%)" /><path d="M 86.31999999999998,231.63699999999994 C 81.62066666666664,227.00099999999992 77.39199999999998,221.81344444444437 74.08525925925923,216.11522222222217" fill="none" stroke="rgb(0%,0%,0%)" /><path d="M 74.08525925925923,216.11522222222217 C 72.43188888888886,213.26611111111106 71.00899999999997,210.28933333333327 69.87299999999998,207.18999999999994" fill="none" stroke="rgb(0%,0%,0%)" /><path d="M 69.87299999999998,207.18999999999994 C 67.64199999999998,201.10433333333327 66.59933333333332,194.72255555555552 66.55611111111111,188.29177777777775" fill="none" stroke="rgb(0%,0%,0%)" /><path d="M 69.87299999999998,207.18999999999994 C 65.41099999999997,195.0186666666666 65.70233333333331,181.66288888888886 69.23588888888888,169.0995555555555" fill="none" stroke="rgb(0%,0%,0%)" /><path d="M 69.23588888888888,169.0995555555555 C 71.00266666666666,162.81788888888883 73.57999999999998,156.73433333333327 76.77899999999998,151.09599999999995" fill="none" stroke="rgb(0%,0%,0%)" /><path d="M 76.77899999999998,151.09599999999995 C 79.10999999999999,146.9883333333333 81.92755555555554,143.09433333333328 85.16162962962963,139.61911111111107" fill="none" stroke="rgb(0%,0%,0%)" /><path d="M 76.77899999999998,151.09599999999995 C 81.44099999999997,142.8806666666666 88.0492222222222,135.51999999999992 96.04337037037035,130.65488888888882" fill="none" stroke="rgb(0%,0%,0%)" /><path d="M 96.04337037037035,130.65488888888882 C 100.04044444444442,128.22233333333327 104.38399999999999,126.4136666666666 109.00399999999999,125.43399999999994" fill="none" stroke="rgb(0%,0%,0%)" /><path d="M 140.843,11.852 C 144.65133333333335,15.570333333333334 149.97200000000004,18.931888888888892 155.85592592592596,22.11503703703704" fill="none" stroke="rgb(0%,0%,0%)" /><path d="M 140.843,11.852 C 148.45966666666666,19.288666666666664 162.12566666666666,25.298222222222222 174.2484074074074,31.30762962962963" fill="none" stroke="rgb(0%,0%,0%)" /><path d="M 174.2484074074074,31.30762962962963 C 180.30977777777775,34.312333333333335 185.9853333333333,37.317 190.326,40.5" fill="none" stroke="rgb(0%,0%,0%)" /><path d="M 190.326,40.5 C 195.09066666666666,35.181333333333335 198.94522222222224,30.439 202.61022222222226,26.014962962962965" fill="none" stroke="rgb(0%,0%,0%)" /><path d="M 190.326,40.5 C 199.85533333333333,29.86266666666667 205.74422222222222,21.53066666666667 213.7571111111111,13.439703703703705" fill="none" stroke="rgb(0%,0%,0%)" /><path d="M 213.7571111111111,13.439703703703705 C 217.76355555555554,9.394222222222222 222.301,5.409 228.09,1.225999999999999" fill="none" stroke="rgb(0%,0%,0%)" /><path d="M 228.09,1.225999999999999 C 227.7326666666667,8.073999999999998 227.0116666666667,13.988333333333333 225.89533333333338,19.524740740740743" fill="none" stroke="rgb(0%,0%,0%)" /><path d="M 228.09,1.225999999999999 C 227.37533333333334,14.921999999999999 225.20600000000002,24.883333333333333 221.32866666666666,35.555925925925926" fill="none" stroke="rgb(0%,0%,0%)" /><path d="M 221.32866666666666,35.555925925925926 C 219.39000000000001,40.89222222222222 217.02433333333335,46.406333333333336 214.2,52.653999999999996" fill="none" stroke="rgb(0%,0%,0%)" /><path d="M 214.2,52.653999999999996 C 219.60833333333335,53.965 224.9506666666667,56.18600000000001 230.27085185185192,58.710333333333345" fill="none" stroke="rgb(0%,0%,0%)" /><path d="M 214.2,52.653999999999996 C 225.01666666666665,55.275999999999996 235.56933333333333,61.538 246.20881481481482,66.58666666666666" fill="none" stroke="rgb(0%,0%,0%)" /><path d="M 246.20881481481482,66.58666666666666 C 251.52855555555556,69.11099999999999 256.87,71.332 262.277,72.643" fill="none" stroke="rgb(0%,0%,0%)" /><path d="M 262.277,72.643 C 257.2563333333333,76.56400000000001 251.84455555555556,78.58144444444446 246.16492592592596,79.66085185185187" fill="none" stroke="rgb(0%,0%,0%)" /><path d="M 262.277,72.643 C 252.23566666666665,80.48500000000001 240.62988888888884,80.71277777777777 228.4457407407407,81.05048148148148" fill="none" stroke="rgb(0%,0%,0%)" /><path d="M 228.4457407407407,81.05048148148148 C 222.35366666666664,81.21933333333334 216.11699999999996,81.41566666666667 209.85899999999998,82.605" fill="none" stroke="rgb(0%,0%,0%)" /><path d="M 209.85899999999998,82.605 C 208.7,87.78333333333333 207.68477777777778,94.04877777777779 206.88774074074075,100.6892962962963" fill="none" stroke="rgb(0%,0%,0%)" /><path d="M 209.85899999999998,82.605 C 207.54099999999997,92.96166666666667 205.7981111111111,107.66677777777778 205.2255925925926,121.02403703703703" fill="none" stroke="rgb(0%,0%,0%)" /><path d="M 205.2255925925926,121.02403703703703 C 204.9393333333333,127.70266666666666 204.94566666666663,134.04433333333333 205.319,139.337" fill="none" stroke="rgb(0%,0%,0%)" /><path d="M 205.319,139.337 C 201.92766666666665,134.71266666666668 198.39155555555556,129.33066666666667 195.07692592592593,123.58181481481482" fill="none" stroke="rgb(0%,0%,0%)" /><path d="M 205.319,139.337 C 198.5363333333333,130.0883333333333 191.17455555555551,117.809 186.1637407407407,105.6255185185185" fill="none" stroke="rgb(0%,0%,0%)" /><path d="M 186.1637407407407,105.6255185185185 C 183.6583333333333,99.53377777777777 181.74066666666664,93.46599999999998 180.777,87.81299999999999" fill="none" stroke="rgb(0%,0%,0%)" /><path d="M 180.777,87.81299999999999 C 174.27033333333333,87.42233333333333 168.2498888888889,87.91477777777777 162.42222222222225,88.95737037037037" fill="none" stroke="rgb(0%,0%,0%)" /><path d="M 180.777,87.81299999999999 C 167.76366666666667,87.03166666666667 156.69522222222224,89.78277777777778 145.2241111111111,93.40262962962963" fill="none" stroke="rgb(0%,0%,0%)" /><path d="M 145.2241111111111,93.40262962962963 C 139.48855555555556,95.21255555555555 133.65233333333333,97.23966666666665 127.422,99.15099999999998" fill="none" stroke="rgb(0%,0%,0%)" /><path d="M 127.422,99.15099999999998 C 129.889,95.30099999999999 132.6245555555556,91.624 135.5986666666667,88.15096296296295" fill="none" stroke="rgb(0%,0%,0%)" /><path d="M 127.422,99.15099999999998 C 132.356,91.451 138.36422222222222,84.44299999999998 145.20666666666668,78.37470370370369" fill="none" stroke="rgb(0%,0%,0%)" /><path d="M 145.20666666666668,78.37470370370369 C 148.6278888888889,75.34055555555554 152.25766666666667,72.54133333333331 156.066,70.00799999999998" fill="none" stroke="rgb(0%,0%,0%)" /><path d="M 156.066,70.00799999999998 C 156.41766666666666,69.77366666666666 156.78033333333335,69.52966666666666 157.11951851851853,69.26296296296296" fill="none" stroke="rgb(0%,0%,0%)" /><path d="M 156.066,70.00799999999998 C 156.76933333333335,69.53933333333332 157.51666666666665,69.03199999999998 158.03214814814814,68.38170370370369" fill="none" stroke="rgb(0%,0%,0%)" /><path d="M 158.03214814814814,68.38170370370369 C 158.2898888888889,68.05655555555555 158.48966666666666,67.69566666666665 158.597,67.28599999999999" fill="none" stroke="rgb(0%,0%,0%)" /><path d="M 158.597,67.28599999999999 C 158.66500000000002,67.02999999999999 159.6276666666667,66.03166666666667 160.87474074074078,64.78555555555556" fill="none" stroke="rgb(0%,0%,0%)" /><path d="M 158.597,67.28599999999999 C 158.733,66.77399999999999 162.44766666666666,63.29266666666665 164.85892592592594,60.79844444444443" fill="none" stroke="rgb(0%,0%,0%)" /><path d="M 164.85892592592594,60.79844444444443 C 166.0645555555556,59.55133333333332 166.94433333333336,58.55099999999999 166.888,58.29199999999999" fill="none" stroke="rgb(0%,0%,0%)" /><path d="M 166.888,58.29199999999999 C 165.431,51.45966666666666 162.70600000000002,46.25611111111111 159.5020740740741,41.60981481481481" fill="none" stroke="rgb(0%,0%,0%)" /><path d="M 166.888,58.29199999999999 C 163.974,44.627333333333326 155.988,37.47777777777777 149.24259259259262,28.271185185185175" fill="none" stroke="rgb(0%,0%,0%)" /><path d="M 149.24259259259262,28.271185185185175 C 145.8698888888889,23.667888888888875 142.80733333333333,18.55033333333332 140.844,11.846999999999987" fill="none" stroke="rgb(0%,0%,0%)" /><line stroke="rgb(0%,0%,0%)" x1="7.98" x2="109.694" y1="0.84" y2="7.143" /><path d="M 109.694,7.143 C 109.84600000000002,7.160333333333334 110.00088888888892,7.179111111111112 110.15270370370374,7.207555555555556" fill="none" stroke="rgb(0%,0%,0%)" /><path d="M 109.694,7.143 C 109.99800000000002,7.177666666666666 110.31355555555557,7.21811111111111 110.59296296296296,7.330111111111111" fill="none" stroke="rgb(0%,0%,0%)" /><path d="M 110.59296296296296,7.330111111111111 C 110.73266666666666,7.386111111111111 110.86333333333333,7.459999999999999 110.979,7.56" fill="none" stroke="rgb(0%,0%,0%)" /><line stroke="rgb(0%,0%,0%)" x1="110.979" x2="111.526" y1="7.56" y2="8.024" /><line stroke="rgb(0%,0%,0%)" x1="111.526" x2="111.491" y1="8.024" y2="9.565" /><line stroke="rgb(0%,0%,0%)" x1="111.491" x2="105.735" y1="9.565" y2="115.898" /><path d="M 105.735,115.898 C 105.71633333333334,116.23233333333334 105.69322222222223,116.57822222222224 105.64433333333335,116.91700000000003" fill="none" stroke="rgb(0%,0%,0%)" /><path d="M 105.735,115.898 C 105.69766666666666,116.56666666666666 105.64255555555556,117.28155555555557 105.399,117.89333333333335" fill="none" stroke="rgb(0%,0%,0%)" /><path d="M 105.399,117.89333333333335 C 105.2772222222222,118.19922222222222 105.10833333333332,118.47933333333333 104.871,118.715" fill="none" stroke="rgb(0%,0%,0%)" /><path d="M 104.871,118.715 C 104.66266666666667,118.92200000000001 104.42011111111111,119.07733333333334 104.15696296296298,119.1967777777778" fill="none" stroke="rgb(0%,0%,0%)" /><path d="M 104.871,118.715 C 104.45433333333332,119.129 103.90077777777776,119.33633333333333 103.31937037037035,119.46322222222221" fill="none" stroke="rgb(0%,0%,0%)" /><path d="M 103.31937037037035,119.46322222222221 C 103.02866666666665,119.52666666666667 102.731,119.57000000000001 102.44,119.60900000000001" fill="none" stroke="rgb(0%,0%,0%)" /><line stroke="rgb(0%,0%,0%)" x1="102.44" x2="4.858" y1="119.609" y2="115.524" /><path d="M 4.858000000000004,115.52400000000002 C 4.6106666666666705,115.48500000000001 4.357000000000005,115.44311111111114 4.1092592592592645,115.38481481481485" fill="none" stroke="rgb(0%,0%,0%)" /><path d="M 4.858000000000004,115.52400000000002 C 4.363333333333337,115.44600000000001 3.8433333333333373,115.35644444444446 3.396074074074078,115.14718518518521" fill="none" stroke="rgb(0%,0%,0%)" /><path d="M 3.396074074074078,115.14718518518521 C 3.172444444444449,115.04255555555557 2.967000000000004,114.90800000000002 2.7920000000000043,114.73000000000002" fill="none" stroke="rgb(0%,0%,0%)" /><path d="M 2.7920000000000043,114.73000000000002 C 2.592333333333338,114.52600000000004 2.4510000000000045,114.28577777777781 2.3500000000000045,114.02448148148152" fill="none" stroke="rgb(0%,0%,0%)" /><path d="M 2.7920000000000043,114.73000000000002 C 2.392666666666671,114.32200000000003 2.226666666666671,113.76911111111113 2.1500000000000044,113.19251851851854" fill="none" stroke="rgb(0%,0%,0%)" /><path d="M 2.1500000000000044,113.19251851851854 C 2.111666666666671,112.90422222222224 2.095666666666671,112.61000000000001 2.084000000000004,112.32500000000002" fill="none" stroke="rgb(0%,0%,0%)" /><line stroke="rgb(0%,0%,0%)" x1="2.084" x2="1.498" y1="112.325" y2="97.18" /><line stroke="rgb(0%,0%,0%)" x1="1.498" x2="4.26" y1="97.18" y2="0.779" /><path d="M 4.26,0.779 C 4.707000000000001,1.0236666666666667 5.183444444444445,1.2123333333333335 5.6753333333333345,1.3430740740740743" fill="none" stroke="rgb(0%,0%,0%)" /><path d="M 4.26,0.779 C 5.154,1.2683333333333333 6.165777777777777,1.5336666666666665 7.183333333333332,1.5595925925925926" fill="none" stroke="rgb(0%,0%,0%)" /><path d="M 7.183333333333332,1.5595925925925926 C 7.69211111111111,1.5725555555555557 8.202333333333332,1.5256666666666667 8.7,1.417" fill="none" stroke="rgb(0%,0%,0%)" /></svg>