<?xml version="1.0" encoding="utf-8" ?>
<svg baseProfile="full" height="100" version="1.1" width="100" xmlns="http://www.w3.org/2000/svg" xmlns:ev="http://www.w3.org/2001/xml-events" xmlns:xlink="http://www.w3.org/1999/xlink"><defs /><line stroke="black" stroke-width="2" x1="74.66750000000002" x2="273.92949999999996" y1="52.653999999999996" y2="52.653999999999996" /><line stroke="black" stroke-width="2" x1="273.92949999999996" x2="273.92949999999996" y1="52.653999999999996" y2="251.91599999999994" /><line stroke="black" stroke-width="2" x1="273.92949999999996" x2="74.66750000000002" y1="251.91599999999994" y2="251.91599999999994" /><line stroke="black" stroke-width="2" x1="74.66750000000002" x2="74.66750000000002" y1="251.91599999999994" y2="52.653999999999996" /><path d="M 109.143,125.58 C 123.684,124.42999999999999 138.221,120.758 152.684,122.65899999999999" fill="none" stroke="black" stroke-width="2" /><path d="M 152.684,122.65899999999999 C 165.584,124.356 177.743,130.54999999999998 187.20499999999998,139.47899999999998" fill="none" stroke="black" stroke-width="2" /><path d="M 187.20499999999998,139.47899999999998 C 196.66699999999997,148.408 203.48199999999997,159.98399999999998 207.402,172.39" fill="none" stroke="black" stroke-width="2" /><path d="M 207.402,172.39 C 209.65499999999997,179.52599999999998 210.98299999999998,187.1 209.92,194.50599999999997" fill="none" stroke="black" stroke-width="2" /><path d="M 209.92,194.50599999999997 C 208.93499999999997,201.35099999999997 205.94,207.78799999999998 202.10199999999998,213.53999999999996" fill="none" stroke="black" stroke-width="2" /><path d="M 86.31999999999998,231.63699999999994 C 79.27099999999997,224.68299999999994 73.28099999999998,216.48799999999994 69.87299999999998,207.18999999999994" fill="none" stroke="black" stroke-width="2" /><path d="M 69.87299999999998,207.18999999999994 C 63.17999999999998,188.93299999999994 67.18199999999997,168.01099999999994 76.77899999999998,151.09599999999995" fill="none" stroke="black" stroke-width="2" /><path d="M 76.77899999999998,151.09599999999995 C 83.77199999999998,138.77299999999994 95.14399999999998,128.37299999999993 109.00399999999999,125.43399999999994" fill="none" stroke="black" stroke-width="2" /><path d="M 140.843,11.852 C 152.268,23.006999999999998 177.30399999999997,30.951 190.326,40.5" fill="none" stroke="black" stroke-width="2" /><path d="M 190.326,40.5 C 204.62,24.544 210.72299999999998,13.774999999999999 228.09,1.225999999999999" fill="none" stroke="black" stroke-width="2" /><path d="M 228.09,1.225999999999999 C 227.018,21.77 222.673,33.911 214.2,52.653999999999996" fill="none" stroke="black" stroke-width="2" /><path d="M 209.85899999999998,82.605 C 206.38199999999998,98.14 204.19899999999998,123.459 205.319,139.337" fill="none" stroke="black" stroke-width="2" /><path d="M 205.319,139.337 C 195.14499999999998,125.46399999999998 183.66799999999998,104.77199999999999 180.777,87.81299999999999" fill="none" stroke="black" stroke-width="2" /><path d="M 180.777,87.81299999999999 C 161.25699999999998,86.64099999999999 146.113,93.41699999999999 127.422,99.15099999999998" fill="none" stroke="black" stroke-width="2" /><path d="M 127.422,99.15099999999998 C 134.823,87.60099999999998 144.641,77.60799999999998 156.066,70.00799999999998" fill="none" stroke="black" stroke-width="2" /><path d="M 156.066,70.00799999999998 C 157.121,69.30499999999998 158.275,68.51499999999999 158.597,67.28599999999999" fill="none" stroke="black" stroke-width="2" /><path d="M 158.597,67.28599999999999 C 158.80100000000002,66.51799999999999 167.05700000000002,59.06899999999999 166.888,58.29199999999999" fill="none" stroke="black" stroke-width="2" /><path d="M 166.888,58.29199999999999 C 162.517,37.79499999999999 146.734,31.956999999999987 140.844,11.846999999999987" fill="none" stroke="black" stroke-width="2" /><path d="M 7.98,0.84 C 41.967,1.087 75.937,3.193 109.694,7.143" fill="none" stroke="black" stroke-width="2" /><path d="M 109.694,7.143 C 110.15,7.194999999999999 110.632,7.26 110.979,7.56" fill="none" stroke="black" stroke-width="2" /><path d="M 110.979,7.56 C 111.526,8.024 111.53,8.849 111.491,9.565" fill="none" stroke="black" stroke-width="2" /><path d="M 111.491,9.565 C 109.572,45.010999999999996 107.654,80.456 105.735,115.898" fill="none" stroke="black" stroke-width="2" /><path d="M 105.735,115.898 C 105.679,116.901 105.583,118.008 104.871,118.715" fill="none" stroke="black" stroke-width="2" /><path d="M 104.871,118.715 C 104.246,119.336 103.31299999999999,119.492 102.44,119.60900000000001" fill="none" stroke="black" stroke-width="2" /><path d="M 102.44,119.60900000000001 C 70.06700000000001,124.019 37.147999999999996,120.52900000000001 4.858000000000004,115.52400000000002" fill="none" stroke="black" stroke-width="2" /><path d="M 4.858000000000004,115.52400000000002 C 4.116000000000004,115.40700000000001 3.317000000000004,115.26400000000001 2.7920000000000043,114.73000000000002" fill="none" stroke="black" stroke-width="2" /><path d="M 2.7920000000000043,114.73000000000002 C 2.193000000000004,114.11800000000002 2.119000000000004,113.18000000000002 2.084000000000004,112.32500000000002" fill="none" stroke="black" stroke-width="2" /><path d="M 2.084000000000004,112.32500000000002 C 1.867000000000004,107.27700000000002 1.6800000000000042,102.22900000000001 1.4980000000000042,97.18000000000002" fill="none" stroke="black" stroke-width="2" /><path d="M 1.4980000000000042,97.18000000000002 C 0.336,65.003 -0.814,32.578 4.26,0.779" fill="none" stroke="black" stroke-width="2" /><path d="M 4.26,0.779 C 5.601,1.513 7.207,1.7429999999999999 8.7,1.417" fill="none" stroke="black" stroke-width="2" /></svg>