<?xml version="1.0" encoding="utf-8" ?>
<svg baseProfile="tiny" height="100%" version="1.2" width="100%" xmlns="http://www.w3.org/2000/svg" xmlns:ev="http://www.w3.org/2001/xml-events" xmlns:xlink="http://www.w3.org/1999/xlink"><defs /><path d="M 109.143 125.58 C 113.99 125.197, 118.837 124.533, 123.68 123.889" fill="none" stroke="#1f77b4" stroke-width="2" /><path d="M 109.143 125.58 C 118.837 124.813, 128.529 122.926, 138.199 122.316" fill="none" stroke="#ff7f0e" stroke-width="2" /><path d="M 138.199 122.316 C 143.034 122.011, 147.863 122.025, 152.684 122.659" fill="none" stroke="#2ca02c" stroke-width="2" /><path d="M 152.684 122.659 C 156.984 123.225, 161.202 124.29, 165.265 125.79" fill="none" stroke="#d62728" stroke-width="2" /><path d="M 152.684 122.659 C 161.284 123.79, 169.555 126.92, 176.916 131.527" fill="none" stroke="#9467bd" stroke-width="2" /><path d="M 176.916 131.527 C 180.597 133.83, 184.051 136.503, 187.205 139.479" fill="none" stroke="#8c564b" stroke-width="2" /><path d="M 187.205 139.479 C 190.359 142.455, 193.219 145.726, 195.775 149.223" fill="none" stroke="#e377c2" stroke-width="2" /><path d="M 187.205 139.479 C 193.513 145.432, 198.645 152.561, 202.526 160.328" fill="none" stroke="#7f7f7f" stroke-width="2" /><path d="M 202.526 160.328 C 204.467 164.212, 206.095 168.255, 207.402 172.39" fill="none" stroke="#bcbd22" stroke-width="2" /><path d="M 207.402 172.39 C 208.153 174.769, 208.801 177.196, 209.292 179.65" fill="none" stroke="#17becf" stroke-width="2" /><path d="M 207.402 172.39 C 208.904 177.147, 209.995 182.099, 210.24 187.066" fill="none" stroke="#1f77b4" stroke-width="2" /><path d="M 210.24 187.066 C 210.363 189.55, 210.274 192.037, 209.92 194.506" fill="none" stroke="#ff7f0e" stroke-width="2" /><path d="M 209.92 194.506 C 209.592 196.788, 209.04 199.024, 208.308 201.205" fill="none" stroke="#2ca02c" stroke-width="2" /><path d="M 209.92 194.506 C 209.263 199.069, 207.713 203.451, 205.616 207.57" fill="none" stroke="#d62728" stroke-width="2" /><path d="M 205.616 207.57 C 204.567 209.629, 203.381 211.623, 202.102 213.54" fill="none" stroke="#9467bd" stroke-width="2" /><path d="M 202.102 213.54 C 198.939 218.283, 195.212 222.589, 191.068 226.474" fill="none" stroke="#8c564b" stroke-width="2" /><path d="M 202.102 213.54 C 195.776 223.026, 187.195 230.764, 177.528 236.885" fill="none" stroke="#e377c2" stroke-width="2" /><path d="M 177.528 236.885 C 172.694 239.946, 167.589 242.602, 162.359 244.871" fill="none" stroke="#7f7f7f" stroke-width="2" /><path d="M 162.359 244.871 C 159.514 246.105, 156.614 247.237, 153.667 248.219" fill="none" stroke="#bcbd22" stroke-width="2" /><path d="M 162.359 244.871 C 156.67 247.34, 150.757 249.399, 144.696 250.664" fill="none" stroke="#17becf" stroke-width="2" /><path d="M 144.696 250.664 C 141.665 251.296, 138.598 251.729, 135.503 251.916" fill="none" stroke="#1f77b4" stroke-width="2" /><path d="M 135.503 251.916 C 133.001 252.066, 130.49 252.053, 127.99 251.879" fill="none" stroke="#ff7f0e" stroke-width="2" /><path d="M 135.503 251.916 C 130.5 252.217, 125.458 251.864, 120.543 250.879" fill="none" stroke="#2ca02c" stroke-width="2" /><path d="M 120.543 250.879 C 118.086 250.386, 115.661 249.736, 113.288 248.93" fill="none" stroke="#d62728" stroke-width="2" /><path d="M 113.288 248.93 C 109.889 247.775, 106.612 246.309, 103.469 244.587" fill="none" stroke="#9467bd" stroke-width="2" /><path d="M 113.288 248.93 C 106.491 246.621, 100.179 243.065, 94.454 238.711" fill="none" stroke="#8c564b" stroke-width="2" /><path d="M 94.454 238.711 C 91.592 236.534, 88.876 234.157, 86.32 231.637" fill="none" stroke="#e377c2" stroke-width="2" /><path d="M 86.32 231.637 C 83.97 229.319, 81.738 226.863, 79.68 224.274" fill="none" stroke="#7f7f7f" stroke-width="2" /><path d="M 86.32 231.637 C 81.621 227.001, 77.392 221.813, 74.085 216.115" fill="none" stroke="#bcbd22" stroke-width="2" /><path d="M 74.085 216.115 C 72.432 213.266, 71.009 210.289, 69.873 207.19" fill="none" stroke="#17becf" stroke-width="2" /><path d="M 69.873 207.19 C 67.642 201.104, 66.599 194.723, 66.556 188.292" fill="none" stroke="#1f77b4" stroke-width="2" /><path d="M 69.873 207.19 C 65.411 195.019, 65.702 181.663, 69.236 169.1" fill="none" stroke="#ff7f0e" stroke-width="2" /><path d="M 69.236 169.1 C 71.003 162.818, 73.58 156.734, 76.779 151.096" fill="none" stroke="#2ca02c" stroke-width="2" /><path d="M 76.779 151.096 C 79.11 146.988, 81.928 143.094, 85.162 139.619" fill="none" stroke="#d62728" stroke-width="2" /><path d="M 76.779 151.096 C 81.441 142.881, 88.049 135.52, 96.043 130.655" fill="none" stroke="#9467bd" stroke-width="2" /><path d="M 96.043 130.655 C 100.04 128.222, 104.384 126.414, 109.004 125.434" fill="none" stroke="#8c564b" stroke-width="2" /><path d="M 140.843 11.852 C 144.651 15.57, 149.972 18.932, 155.856 22.115" fill="none" stroke="#e377c2" stroke-width="2" /><path d="M 140.843 11.852 C 148.46 19.289, 162.126 25.298, 174.248 31.308" fill="none" stroke="#7f7f7f" stroke-width="2" /><path d="M 174.248 31.308 C 180.31 34.312, 185.985 37.317, 190.326 40.5" fill="none" stroke="#bcbd22" stroke-width="2" /><path d="M 190.326 40.5 C 195.091 35.181, 198.945 30.439, 202.61 26.015" fill="none" stroke="#17becf" stroke-width="2" /><path d="M 190.326 40.5 C 199.855 29.863, 205.744 21.531, 213.757 13.44" fill="none" stroke="#1f77b4" stroke-width="2" /><path d="M 213.757 13.44 C 217.764 9.394, 222.301 5.409, 228.09 1.226" fill="none" stroke="#ff7f0e" stroke-width="2" /><path d="M 228.09 1.226 C 227.733 8.074, 227.012 13.988, 225.895 19.525" fill="none" stroke="#2ca02c" stroke-width="2" /><path d="M 228.09 1.226 C 227.375 14.922, 225.206 24.883, 221.329 35.556" fill="none" stroke="#d62728" stroke-width="2" /><path d="M 221.329 35.556 C 219.39 40.892, 217.024 46.406, 214.2 52.654" fill="none" stroke="#9467bd" stroke-width="2" /><path d="M 214.2 52.654 C 219.608 53.965, 224.951 56.186, 230.271 58.71" fill="none" stroke="#8c564b" stroke-width="2" /><path d="M 214.2 52.654 C 225.017 55.276, 235.569 61.538, 246.209 66.587" fill="none" stroke="#e377c2" stroke-width="2" /><path d="M 246.209 66.587 C 251.529 69.111, 256.87 71.332, 262.277 72.643" fill="none" stroke="#7f7f7f" stroke-width="2" /><path d="M 262.277 72.643 C 257.256 76.564, 251.845 78.581, 246.165 79.661" fill="none" stroke="#bcbd22" stroke-width="2" /><path d="M 262.277 72.643 C 252.236 80.485, 240.63 80.713, 228.446 81.05" fill="none" stroke="#17becf" stroke-width="2" /><path d="M 228.446 81.05 C 222.354 81.219, 216.117 81.416, 209.859 82.605" fill="none" stroke="#1f77b4" stroke-width="2" /><path d="M 209.859 82.605 C 208.7 87.783, 207.685 94.049, 206.888 100.689" fill="none" stroke="#ff7f0e" stroke-width="2" /><path d="M 209.859 82.605 C 207.541 92.962, 205.798 107.667, 205.226 121.024" fill="none" stroke="#2ca02c" stroke-width="2" /><path d="M 205.226 121.024 C 204.939 127.703, 204.946 134.044, 205.319 139.337" fill="none" stroke="#d62728" stroke-width="2" /><path d="M 205.319 139.337 C 201.928 134.713, 198.392 129.331, 195.077 123.582" fill="none" stroke="#9467bd" stroke-width="2" /><path d="M 205.319 139.337 C 198.536 130.088, 191.175 117.809, 186.164 105.626" fill="none" stroke="#8c564b" stroke-width="2" /><path d="M 186.164 105.626 C 183.658 99.534, 181.741 93.466, 180.777 87.813" fill="none" stroke="#e377c2" stroke-width="2" /><path d="M 180.777 87.813 C 174.27 87.422, 168.25 87.915, 162.422 88.957" fill="none" stroke="#7f7f7f" stroke-width="2" /><path d="M 180.777 87.813 C 167.764 87.032, 156.695 89.783, 145.224 93.403" fill="none" stroke="#bcbd22" stroke-width="2" /><path d="M 145.224 93.403 C 139.489 95.213, 133.652 97.24, 127.422 99.151" fill="none" stroke="#17becf" stroke-width="2" /><path d="M 127.422 99.151 C 129.889 95.301, 132.625 91.624, 135.599 88.151" fill="none" stroke="#1f77b4" stroke-width="2" /><path d="M 127.422 99.151 C 132.356 91.451, 138.364 84.443, 145.207 78.375" fill="none" stroke="#ff7f0e" stroke-width="2" /><path d="M 145.207 78.375 C 148.628 75.341, 152.258 72.541, 156.066 70.008" fill="none" stroke="#2ca02c" stroke-width="2" /><path d="M 156.066 70.008 C 156.418 69.774, 156.78 69.53, 157.12 69.263" fill="none" stroke="#d62728" stroke-width="2" /><path d="M 156.066 70.008 C 156.769 69.539, 157.517 69.032, 158.032 68.382" fill="none" stroke="#9467bd" stroke-width="2" /><path d="M 158.032 68.382 C 158.29 68.057, 158.49 67.696, 158.597 67.286" fill="none" stroke="#8c564b" stroke-width="2" /><path d="M 158.597 67.286 C 158.665 67.03, 159.628 66.032, 160.875 64.786" fill="none" stroke="#e377c2" stroke-width="2" /><path d="M 158.597 67.286 C 158.733 66.774, 162.448 63.293, 164.859 60.798" fill="none" stroke="#7f7f7f" stroke-width="2" /><path d="M 164.859 60.798 C 166.065 59.551, 166.944 58.551, 166.888 58.292" fill="none" stroke="#bcbd22" stroke-width="2" /><path d="M 166.888 58.292 C 165.431 51.46, 162.706 46.256, 159.502 41.61" fill="none" stroke="#17becf" stroke-width="2" /><path d="M 166.888 58.292 C 163.974 44.627, 155.988 37.478, 149.243 28.271" fill="none" stroke="#1f77b4" stroke-width="2" /><path d="M 149.243 28.271 C 145.87 23.668, 142.807 18.55, 140.844 11.847" fill="none" stroke="#ff7f0e" stroke-width="2" /><line fill="none" stroke="#2ca02c" stroke-width="2" x1="7.98" x2="109.694" y1="0.84" y2="7.143" /><path d="M 109.694 7.143 C 109.846 7.16, 110.001 7.179, 110.153 7.208" fill="none" stroke="#d62728" stroke-width="2" /><path d="M 109.694 7.143 C 109.998 7.178, 110.314 7.218, 110.593 7.33" fill="none" stroke="#9467bd" stroke-width="2" /><path d="M 110.593 7.33 C 110.733 7.386, 110.863 7.46, 110.979 7.56" fill="none" stroke="#8c564b" stroke-width="2" /><line fill="none" stroke="#e377c2" stroke-width="2" x1="110.979" x2="111.526" y1="7.56" y2="8.024" /><line fill="none" stroke="#7f7f7f" stroke-width="2" x1="111.526" x2="111.491" y1="8.024" y2="9.565" /><line fill="none" stroke="#bcbd22" stroke-width="2" x1="111.491" x2="105.735" y1="9.565" y2="115.898" /><path d="M 105.735 115.898 C 105.716 116.232, 105.693 116.578, 105.644 116.917" fill="none" stroke="#17becf" stroke-width="2" /><path d="M 105.735 115.898 C 105.698 116.567, 105.643 117.282, 105.399 117.893" fill="none" stroke="#1f77b4" stroke-width="2" /><path d="M 105.399 117.893 C 105.277 118.199, 105.108 118.479, 104.871 118.715" fill="none" stroke="#ff7f0e" stroke-width="2" /><path d="M 104.871 118.715 C 104.663 118.922, 104.42 119.077, 104.157 119.197" fill="none" stroke="#2ca02c" stroke-width="2" /><path d="M 104.871 118.715 C 104.454 119.129, 103.901 119.336, 103.319 119.463" fill="none" stroke="#d62728" stroke-width="2" /><path d="M 103.319 119.463 C 103.029 119.527, 102.731 119.57, 102.44 119.609" fill="none" stroke="#9467bd" stroke-width="2" /><line fill="none" stroke="#8c564b" stroke-width="2" x1="102.44" x2="4.858" y1="119.609" y2="115.524" /><path d="M 4.858 115.524 C 4.611 115.485, 4.357 115.443, 4.109 115.385" fill="none" stroke="#e377c2" stroke-width="2" /><path d="M 4.858 115.524 C 4.363 115.446, 3.843 115.356, 3.396 115.147" fill="none" stroke="#7f7f7f" stroke-width="2" /><path d="M 3.396 115.147 C 3.172 115.043, 2.967 114.908, 2.792 114.73" fill="none" stroke="#bcbd22" stroke-width="2" /><path d="M 2.792 114.73 C 2.592 114.526, 2.451 114.286, 2.35 114.024" fill="none" stroke="#17becf" stroke-width="2" /><path d="M 2.792 114.73 C 2.393 114.322, 2.227 113.769, 2.15 113.193" fill="none" stroke="#1f77b4" stroke-width="2" /><path d="M 2.15 113.193 C 2.112 112.904, 2.096 112.61, 2.084 112.325" fill="none" stroke="#ff7f0e" stroke-width="2" /><line fill="none" stroke="#2ca02c" stroke-width="2" x1="2.084" x2="1.498" y1="112.325" y2="97.18" /><line fill="none" stroke="#d62728" stroke-width="2" x1="1.498" x2="4.26" y1="97.18" y2="0.779" /><path d="M 4.26 0.779 C 4.707 1.024, 5.183 1.212, 5.675 1.343" fill="none" stroke="#9467bd" stroke-width="2" /><path d="M 4.26 0.779 C 5.154 1.268, 6.166 1.534, 7.183 1.56" fill="none" stroke="#8c564b" stroke-width="2" /><path d="M 7.183 1.56 C 7.692 1.573, 8.202 1.526, 8.7 1.417" fill="none" stroke="#e377c2" stroke-width="2" /></svg>